<?xml version="1.0" encoding="utf-8"?>
<!-- Generator: Adobe Illustrator 24.0.1, SVG Export Plug-In . SVG Version: 6.00 Build 0)  -->
<svg version="1.1" id="Layer_1" xmlns="http://www.w3.org/2000/svg" xmlns:xlink="http://www.w3.org/1999/xlink" x="0px" y="0px"
	 viewBox="0 0 274.9 110.8" style="enable-background:new 0 0 274.9 110.8;" xml:space="preserve">
<g>
	<g>
		<path d="M124.8,65.8c0-0.7-0.2-1.2-0.7-1.5s-1.3-0.7-2.5-1.1s-2.2-0.8-2.9-1.2c-1.9-1.1-2.9-2.5-2.9-4.3c0-0.9,0.3-1.8,0.8-2.5
			c0.5-0.7,1.3-1.3,2.2-1.7c1-0.4,2.1-0.6,3.3-0.6c1.2,0,2.3,0.2,3.3,0.7c1,0.4,1.7,1.1,2.2,1.9c0.5,0.8,0.8,1.7,0.8,2.8h-3.5
			c0-0.8-0.2-1.4-0.7-1.8c-0.5-0.4-1.2-0.7-2.1-0.7c-0.9,0-1.5,0.2-2,0.5c-0.5,0.4-0.7,0.8-0.7,1.4c0,0.6,0.3,1,0.8,1.4
			c0.6,0.4,1.4,0.7,2.5,1.1c2,0.6,3.5,1.4,4.4,2.3c0.9,0.9,1.4,2,1.4,3.4c0,1.5-0.6,2.7-1.7,3.5c-1.1,0.8-2.6,1.3-4.5,1.3
			c-1.3,0-2.5-0.2-3.6-0.7c-1.1-0.5-1.9-1.1-2.5-2c-0.6-0.8-0.8-1.8-0.8-2.9h3.5c0,1.9,1.1,2.8,3.4,2.8c0.8,0,1.5-0.2,2-0.5
			C124.6,66.9,124.8,66.4,124.8,65.8z"/>
		<path d="M143.7,56h-5.2v14.3H135V56h-5.1v-2.9h13.9V56z"/>
		<path d="M154.2,66.8H148l-1.2,3.5h-3.7l6.3-17.2h3.3l6.4,17.2h-3.7L154.2,66.8z M149,63.9h4.3l-2.1-6.4L149,63.9z"/>
		<path d="M172.4,56h-5.2v14.3h-3.5V56h-5.1v-2.9h13.9V56z"/>
		<path d="M178.3,70.3h-3.5V53.1h3.5V70.3z"/>
		<path d="M190.6,65.8c0-0.7-0.2-1.2-0.7-1.5s-1.3-0.7-2.5-1.1s-2.2-0.8-2.9-1.2c-1.9-1.1-2.9-2.5-2.9-4.3c0-0.9,0.3-1.8,0.8-2.5
			c0.5-0.7,1.3-1.3,2.2-1.7c1-0.4,2.1-0.6,3.3-0.6c1.2,0,2.3,0.2,3.3,0.7c1,0.4,1.7,1.1,2.2,1.9c0.5,0.8,0.8,1.7,0.8,2.8h-3.5
			c0-0.8-0.2-1.4-0.7-1.8c-0.5-0.4-1.2-0.7-2.1-0.7c-0.9,0-1.5,0.2-2,0.5c-0.5,0.4-0.7,0.8-0.7,1.4c0,0.6,0.3,1,0.8,1.4
			c0.6,0.4,1.4,0.7,2.5,1.1c2,0.6,3.5,1.4,4.4,2.3c0.9,0.9,1.4,2,1.4,3.4c0,1.5-0.6,2.7-1.7,3.5c-1.1,0.8-2.6,1.3-4.5,1.3
			c-1.3,0-2.5-0.2-3.6-0.7s-1.9-1.1-2.5-2c-0.6-0.8-0.8-1.8-0.8-2.9h3.5c0,1.9,1.1,2.8,3.4,2.8c0.8,0,1.5-0.2,2-0.5
			C190.4,66.9,190.6,66.4,190.6,65.8z"/>
		<path d="M209.6,56h-5.2v14.3h-3.5V56h-5.1v-2.9h13.9V56z"/>
		<path d="M215.6,70.3h-3.5V53.1h3.5V70.3z"/>
		<path d="M232.4,64.6c-0.1,1.9-0.8,3.3-2,4.4c-1.2,1.1-2.8,1.6-4.8,1.6c-2.2,0-3.9-0.7-5.2-2.2c-1.3-1.5-1.9-3.5-1.9-6.1v-1.1
			c0-1.7,0.3-3.1,0.9-4.4c0.6-1.3,1.4-2.2,2.5-2.9c1.1-0.7,2.3-1,3.7-1c2,0,3.5,0.5,4.7,1.6c1.2,1.1,1.9,2.6,2.1,4.5h-3.5
			c-0.1-1.1-0.4-1.9-0.9-2.4c-0.5-0.5-1.3-0.8-2.4-0.8c-1.2,0-2,0.4-2.6,1.3c-0.6,0.8-0.9,2.2-0.9,3.9v1.3c0,1.9,0.3,3.2,0.8,4.1
			c0.6,0.9,1.4,1.3,2.6,1.3c1.1,0,1.9-0.3,2.4-0.8c0.5-0.5,0.8-1.3,0.9-2.3H232.4z"/>
		<path d="M243.8,65.8c0-0.7-0.2-1.2-0.7-1.5s-1.3-0.7-2.5-1.1s-2.2-0.8-2.9-1.2c-1.9-1.1-2.9-2.5-2.9-4.3c0-0.9,0.3-1.8,0.8-2.5
			c0.5-0.7,1.3-1.3,2.2-1.7c1-0.4,2.1-0.6,3.3-0.6c1.2,0,2.3,0.2,3.3,0.7c1,0.4,1.7,1.1,2.2,1.9c0.5,0.8,0.8,1.7,0.8,2.8h-3.5
			c0-0.8-0.2-1.4-0.7-1.8c-0.5-0.4-1.2-0.7-2.1-0.7c-0.9,0-1.5,0.2-2,0.5c-0.5,0.4-0.7,0.8-0.7,1.4c0,0.6,0.3,1,0.8,1.4
			c0.6,0.4,1.4,0.7,2.5,1.1c2,0.6,3.5,1.4,4.4,2.3c0.9,0.9,1.4,2,1.4,3.4c0,1.5-0.6,2.7-1.7,3.5c-1.1,0.8-2.6,1.3-4.5,1.3
			c-1.3,0-2.5-0.2-3.6-0.7s-1.9-1.1-2.5-2c-0.6-0.8-0.8-1.8-0.8-2.9h3.5c0,1.9,1.1,2.8,3.4,2.8c0.8,0,1.5-0.2,2-0.5
			C243.6,66.9,243.8,66.4,243.8,65.8z"/>
		<path d="M126.2,85.7h-6.7v4.6h7.9v2.8H116V75.9h11.4v2.9h-7.9v4.1h6.7V85.7z"/>
		<path d="M138.5,88.6c0-0.7-0.2-1.2-0.7-1.5s-1.3-0.7-2.5-1.1c-1.2-0.4-2.2-0.8-2.9-1.2c-1.9-1.1-2.9-2.5-2.9-4.3
			c0-0.9,0.3-1.8,0.8-2.5c0.5-0.7,1.3-1.3,2.2-1.7c1-0.4,2.1-0.6,3.3-0.6c1.2,0,2.3,0.2,3.3,0.7c1,0.4,1.7,1.1,2.2,1.9
			c0.5,0.8,0.8,1.7,0.8,2.8h-3.5c0-0.8-0.2-1.4-0.7-1.8c-0.5-0.4-1.2-0.7-2.1-0.7c-0.9,0-1.5,0.2-2,0.5c-0.5,0.4-0.7,0.8-0.7,1.4
			c0,0.6,0.3,1,0.8,1.4c0.6,0.4,1.4,0.7,2.5,1.1c2,0.6,3.5,1.4,4.4,2.3c0.9,0.9,1.4,2,1.4,3.4c0,1.5-0.6,2.7-1.7,3.5
			c-1.1,0.8-2.6,1.3-4.5,1.3c-1.3,0-2.5-0.2-3.6-0.7c-1.1-0.5-1.9-1.1-2.5-2c-0.6-0.8-0.8-1.8-0.8-2.9h3.5c0,1.9,1.1,2.8,3.4,2.8
			c0.8,0,1.5-0.2,2-0.5C138.3,89.7,138.5,89.2,138.5,88.6z"/>
		<path d="M157.5,78.8h-5.2v14.3h-3.5V78.8h-5.1v-2.9h13.9V78.8z"/>
		<path d="M173.4,84.9c0,1.7-0.3,3.2-0.9,4.5c-0.6,1.3-1.4,2.3-2.5,3c-1.1,0.7-2.4,1-3.8,1c-1.4,0-2.7-0.3-3.8-1
			c-1.1-0.7-2-1.7-2.6-2.9s-0.9-2.7-0.9-4.4v-0.9c0-1.7,0.3-3.2,0.9-4.5c0.6-1.3,1.5-2.3,2.6-3c1.1-0.7,2.4-1,3.8-1
			c1.4,0,2.7,0.3,3.8,1c1.1,0.7,2,1.7,2.6,3c0.6,1.3,0.9,2.8,0.9,4.5V84.9z M169.8,84.2c0-1.8-0.3-3.2-1-4.1s-1.6-1.4-2.7-1.4
			c-1.2,0-2.1,0.5-2.7,1.4c-0.6,0.9-1,2.3-1,4.1v0.8c0,1.8,0.3,3.1,1,4.1c0.6,1,1.6,1.5,2.8,1.5c1.2,0,2.1-0.5,2.7-1.4
			c0.6-0.9,1-2.3,1-4.1V84.2z"/>
		<path d="M190,93.1h-3.5l-6.8-11.3v11.3h-3.5V75.9h3.5l6.8,11.3V75.9h3.5V93.1z"/>
		<path d="M197,93.1h-3.5V75.9h3.5V93.1z"/>
		<path d="M210.3,89.6h-6.2l-1.2,3.5h-3.7l6.3-17.2h3.3l6.4,17.2h-3.7L210.3,89.6z M205.1,86.7h4.3l-2.1-6.4L205.1,86.7z"/>
	</g>
	<g>
		<g>
			<circle cx="95.6" cy="19.6" r="2.2"/>
			<circle cx="59.9" cy="19.6" r="2.2"/>
			<circle cx="24.2" cy="19.6" r="2.2"/>
			<circle cx="95.6" cy="55.3" r="2.2"/>
			<circle cx="59.9" cy="55.3" r="2.2"/>
			<circle cx="24.2" cy="55.3" r="2.2"/>
			<circle cx="95.6" cy="91" r="2.2"/>
			<circle cx="59.9" cy="91" r="2.2"/>
			<circle cx="24.2" cy="91" r="2.2"/>
		</g>
	</g>
</g>
</svg>
